<?xml version="1.0" encoding="UTF-8"?>
<svg xmlns="http://www.w3.org/2000/svg" xmlns:xlink="http://www.w3.org/1999/xlink" width="810pt" height="1439.999935pt" viewBox="0 0 810 1439.999935" version="1.2">
<defs>
<clipPath id="clip1">
  <path d="M 105.324219 296.949219 L 321.875 296.949219 L 321.875 513.5 L 105.324219 513.5 Z M 105.324219 296.949219 "/>
</clipPath>
<clipPath id="clip2">
  <path d="M 239.261719 143.507812 L 404.71875 143.507812 L 404.71875 308.964844 L 239.261719 308.964844 Z M 239.261719 143.507812 "/>
</clipPath>
<clipPath id="clip3">
  <path d="M 347.679688 309.558594 L 520.648438 309.558594 L 520.648438 482 L 347.679688 482 Z M 347.679688 309.558594 "/>
</clipPath>
<clipPath id="clip4">
  <path d="M 414.769531 81 L 630.769531 81 L 630.769531 297 L 414.769531 297 Z M 414.769531 81 "/>
</clipPath>
<clipPath id="clip5">
  <path d="M 575.492188 309.558594 L 704.316406 309.558594 L 704.316406 438.382812 L 575.492188 438.382812 Z M 575.492188 309.558594 "/>
</clipPath>
</defs>
<g id="surface1">
<rect x="0" y="0" width="810" height="1439.999935" style="fill:rgb(100%,100%,100%);fill-opacity:1;stroke:none;"/>
<rect x="0" y="0" width="810" height="1439.999935" style="fill:rgb(100%,100%,100%);fill-opacity:1;stroke:none;"/>
<g clip-path="url(#clip1)" clip-rule="nonzero">
<path style=" stroke:none;fill-rule:nonzero;fill:rgb(0.389099%,0.389099%,0.389099%);fill-opacity:1;" d="M 213.554688 316.476562 C 242.449219 316.476562 245.863281 316.570312 257.300781 317.09375 C 267.832031 317.566406 273.574219 319.320312 277.417969 320.839844 C 282.445312 322.785156 286.054688 325.15625 289.847656 328.953125 C 293.644531 332.75 295.96875 336.355469 297.960938 341.386719 C 299.433594 345.179688 301.1875 350.921875 301.710938 361.503906 C 302.234375 372.9375 302.328125 376.355469 302.328125 405.25 C 302.328125 434.144531 302.234375 437.5625 301.710938 448.996094 C 301.234375 459.53125 299.480469 465.269531 297.960938 469.113281 C 296.015625 474.144531 293.644531 477.75 289.847656 481.546875 C 286.054688 485.339844 282.445312 487.667969 277.417969 489.660156 C 273.621094 491.128906 267.878906 492.886719 257.300781 493.40625 C 245.863281 493.929688 242.449219 494.023438 213.554688 494.023438 C 184.65625 494.023438 181.242188 493.929688 169.804688 493.40625 C 159.273438 492.933594 153.53125 491.175781 149.6875 489.660156 C 144.660156 487.714844 141.054688 485.339844 137.257812 481.546875 C 133.460938 477.75 131.136719 474.144531 129.144531 469.113281 C 127.671875 465.320312 125.917969 459.578125 125.394531 448.996094 C 124.875 437.5625 124.777344 434.144531 124.777344 405.25 C 124.777344 376.355469 124.875 372.9375 125.394531 361.503906 C 125.871094 350.96875 127.625 345.226562 129.144531 341.386719 C 131.089844 336.355469 133.460938 332.75 137.257812 328.953125 C 141.054688 325.15625 144.660156 322.832031 149.6875 320.839844 C 153.484375 319.371094 159.226562 317.613281 169.804688 317.09375 C 181.242188 316.570312 184.65625 316.476562 213.554688 316.476562 M 213.554688 296.972656 C 184.136719 296.972656 180.480469 297.117188 168.90625 297.636719 C 157.375 298.160156 149.5 300.011719 142.617188 302.667969 C 135.5 305.417969 129.476562 309.121094 123.449219 315.148438 C 117.472656 321.171875 113.769531 327.199219 111.019531 334.316406 C 108.363281 341.195312 106.511719 349.070312 105.988281 360.601562 C 105.46875 372.132812 105.324219 375.832031 105.324219 405.203125 C 105.324219 434.621094 105.46875 438.273438 105.988281 449.851562 C 106.511719 461.378906 108.363281 469.257812 111.019531 476.136719 C 113.769531 483.253906 117.472656 489.28125 123.496094 495.304688 C 129.523438 501.332031 135.550781 505.03125 142.667969 507.785156 C 149.546875 510.441406 157.421875 512.292969 168.953125 512.8125 C 180.480469 513.335938 184.183594 513.476562 213.601562 513.476562 C 243.019531 513.476562 246.671875 513.335938 258.25 512.8125 C 269.777344 512.292969 277.65625 510.441406 284.535156 507.785156 C 291.652344 505.03125 297.675781 501.332031 303.703125 495.304688 C 309.730469 489.28125 313.429688 483.253906 316.183594 476.136719 C 318.839844 469.257812 320.691406 461.378906 321.210938 449.851562 C 321.734375 438.320312 321.875 434.621094 321.875 405.203125 C 321.875 375.785156 321.734375 372.132812 321.210938 360.554688 C 320.691406 349.023438 318.839844 341.148438 316.183594 334.269531 C 313.429688 327.152344 309.730469 321.125 303.703125 315.097656 C 297.675781 309.074219 291.652344 305.371094 284.535156 302.621094 C 277.65625 299.964844 269.777344 298.113281 258.25 297.589844 C 246.671875 297.117188 242.96875 296.972656 213.554688 296.972656 "/>
</g>
<path style=" stroke:none;fill-rule:nonzero;fill:rgb(0.389099%,0.389099%,0.389099%);fill-opacity:1;" d="M 213.554688 349.640625 C 182.855469 349.640625 157.992188 374.503906 157.992188 405.203125 C 157.992188 435.902344 182.902344 460.8125 213.601562 460.8125 C 244.300781 460.8125 269.210938 435.949219 269.210938 405.203125 C 269.160156 374.503906 244.25 349.640625 213.554688 349.640625 M 213.554688 441.308594 C 193.625 441.308594 177.492188 425.175781 177.492188 405.25 C 177.492188 385.320312 193.625 369.191406 213.554688 369.191406 C 233.480469 369.191406 249.613281 385.320312 249.613281 405.25 C 249.660156 425.128906 233.480469 441.308594 213.554688 441.308594 "/>
<path style=" stroke:none;fill-rule:nonzero;fill:rgb(0.389099%,0.389099%,0.389099%);fill-opacity:1;" d="M 284.34375 347.457031 C 284.34375 354.625 278.507812 360.460938 271.34375 360.460938 C 264.179688 360.460938 258.34375 354.625 258.34375 347.457031 C 258.34375 340.292969 264.179688 334.457031 271.34375 334.457031 C 278.507812 334.457031 284.34375 340.246094 284.34375 347.457031 "/>
<g clip-path="url(#clip2)" clip-rule="nonzero">
<path style=" stroke:none;fill-rule:nonzero;fill:rgb(0%,0%,0%);fill-opacity:1;" d="M 377.140625 143.507812 L 266.835938 143.507812 C 251.667969 143.507812 239.261719 155.917969 239.261719 171.085938 L 239.261719 253.8125 C 239.261719 268.980469 251.667969 281.390625 266.835938 281.390625 L 294.414062 281.390625 L 321.988281 308.964844 L 349.566406 281.390625 L 377.140625 281.390625 C 392.3125 281.390625 404.71875 268.980469 404.71875 253.8125 L 404.71875 171.085938 C 404.71875 155.917969 392.3125 143.507812 377.140625 143.507812 Z M 390.929688 253.8125 C 390.929688 261.417969 384.742188 267.601562 377.140625 267.601562 L 343.855469 267.601562 L 321.988281 289.46875 L 300.121094 267.601562 L 266.835938 267.601562 C 259.230469 267.601562 253.050781 261.417969 253.050781 253.8125 L 253.050781 171.085938 C 253.050781 163.476562 259.230469 157.296875 266.835938 157.296875 L 377.140625 157.296875 C 384.742188 157.296875 390.929688 163.476562 390.929688 171.085938 Z M 390.929688 253.8125 "/>
</g>
<path style=" stroke:none;fill-rule:nonzero;fill:rgb(0%,0%,0%);fill-opacity:1;" d="M 356.460938 191.765625 C 356.460938 180.347656 347.195312 171.085938 335.777344 171.085938 C 324.359375 171.085938 315.097656 180.347656 315.097656 191.765625 L 315.097656 197.597656 C 299.988281 196.078125 285.296875 189.542969 273.730469 177.980469 C 273.730469 196.527344 281.164062 213.339844 293.1875 225.644531 C 291.355469 226.023438 289.457031 226.238281 287.519531 226.238281 C 283.0625 226.238281 277.453125 225.078125 273.730469 223.207031 C 278.46875 240.820312 295.988281 253.8125 315.097656 253.8125 C 337.929688 253.8125 356.460938 235.285156 356.460938 212.449219 L 356.460938 205.554688 L 370.246094 205.554688 Z M 335.777344 198.664062 C 331.972656 198.664062 328.882812 195.578125 328.882812 191.765625 C 328.882812 187.957031 331.972656 184.875 335.777344 184.875 C 339.582031 184.875 342.671875 187.957031 342.671875 191.765625 C 342.671875 195.578125 339.582031 198.664062 335.777344 198.664062 Z M 335.777344 198.664062 "/>
<g clip-path="url(#clip3)" clip-rule="nonzero">
<path style=" stroke:none;fill-rule:nonzero;fill:rgb(0%,0%,0%);fill-opacity:1;" d="M 434.164062 309.890625 C 386.398438 309.890625 347.679688 348.609375 347.679688 396.375 C 347.679688 439.738281 379.617188 475.535156 421.238281 481.789062 L 421.238281 419.292969 L 399.835938 419.292969 L 399.835938 396.5625 L 421.238281 396.5625 L 421.238281 381.433594 C 421.238281 356.386719 433.4375 345.398438 454.253906 345.398438 C 464.21875 345.398438 469.496094 346.136719 471.992188 346.472656 L 471.992188 366.320312 L 457.792969 366.320312 C 448.957031 366.320312 445.871094 374.695312 445.871094 384.140625 L 445.871094 396.570312 L 471.769531 396.570312 L 468.257812 419.300781 L 445.871094 419.300781 L 445.871094 481.984375 C 488.082031 476.246094 520.648438 440.15625 520.648438 396.375 C 520.648438 348.609375 481.929688 309.890625 434.164062 309.890625 Z M 434.164062 309.890625 "/>
</g>
<g clip-path="url(#clip4)" clip-rule="nonzero">
<path style=" stroke:none;fill-rule:nonzero;fill:rgb(0%,0%,0%);fill-opacity:1;" d="M 443.980469 81 C 427.945312 81 414.769531 94.179688 414.769531 110.214844 L 414.769531 267.910156 C 414.769531 283.878906 427.945312 297.058594 443.980469 297.058594 L 601.675781 297.058594 C 617.648438 297.058594 630.828125 283.878906 630.828125 267.910156 L 630.828125 110.214844 C 630.828125 94.179688 617.648438 81 601.675781 81 Z M 443.980469 97.621094 L 601.675781 97.621094 C 608.6875 97.621094 614.207031 103.136719 614.207031 110.214844 L 614.207031 267.910156 C 614.207031 274.921875 608.6875 280.4375 601.675781 280.4375 L 443.980469 280.4375 C 436.90625 280.4375 431.386719 274.921875 431.386719 267.910156 L 431.386719 110.214844 C 431.386719 103.136719 436.90625 97.621094 443.980469 97.621094 Z M 464.628906 114.238281 C 455.472656 114.238281 448.007812 121.707031 448.007812 130.859375 C 448.007812 140.011719 455.472656 147.480469 464.628906 147.480469 C 473.78125 147.480469 481.246094 140.011719 481.246094 130.859375 C 481.246094 121.707031 473.78125 114.238281 464.628906 114.238281 Z M 448.007812 164.097656 L 448.007812 263.820312 L 481.246094 263.820312 L 481.246094 164.097656 Z M 497.867188 164.097656 L 497.867188 263.820312 L 531.105469 263.820312 L 531.105469 219.28125 C 531.105469 205.453125 532.40625 193.054688 549.023438 193.054688 C 565.386719 193.054688 564.347656 207.921875 564.347656 220.191406 L 564.347656 263.820312 L 597.585938 263.820312 L 597.585938 214.609375 C 597.585938 186.042969 591.613281 164.097656 559.21875 164.097656 C 543.636719 164.097656 535.78125 170.332031 531.496094 178.640625 L 531.105469 178.640625 L 531.105469 164.097656 Z M 497.867188 164.097656 "/>
</g>
<g clip-path="url(#clip5)" clip-rule="nonzero">
<path style=" stroke:none;fill-rule:nonzero;fill:rgb(0%,0%,0%);fill-opacity:1;" d="M 639.90625 309.558594 C 604.332031 309.558594 575.492188 338.394531 575.492188 373.972656 C 575.492188 401.261719 592.472656 424.566406 616.433594 433.953125 C 615.875 428.855469 615.359375 421.039062 616.660156 415.476562 C 617.832031 410.453125 624.207031 383.460938 624.207031 383.460938 C 624.207031 383.460938 622.28125 379.601562 622.28125 373.898438 C 622.28125 364.941406 627.472656 358.261719 633.933594 358.261719 C 639.429688 358.261719 642.082031 362.390625 642.082031 367.332031 C 642.082031 372.855469 638.566406 381.121094 636.75 388.773438 C 635.230469 395.1875 639.964844 400.414062 646.289062 400.414062 C 657.734375 400.414062 666.535156 388.339844 666.535156 370.917969 C 666.535156 355.496094 655.453125 344.714844 639.628906 344.714844 C 621.304688 344.714844 610.546875 358.460938 610.546875 372.671875 C 610.546875 378.203125 612.679688 384.140625 615.339844 387.367188 C 615.867188 388.007812 615.9375 388.566406 615.785156 389.21875 C 615.292969 391.253906 614.210938 395.625 614 396.523438 C 613.722656 397.699219 613.066406 397.953125 611.847656 397.378906 C 603.804688 393.628906 598.773438 381.867188 598.773438 372.425781 C 598.773438 352.109375 613.535156 333.441406 641.335938 333.441406 C 663.679688 333.441406 681.046875 349.367188 681.046875 370.648438 C 681.046875 392.851562 667.050781 410.710938 647.621094 410.710938 C 641.097656 410.710938 634.960938 407.316406 632.859375 403.316406 C 632.859375 403.316406 629.625 415.613281 628.847656 418.632812 C 627.390625 424.226562 623.46875 431.246094 620.839844 435.523438 C 626.863281 437.371094 633.265625 438.382812 639.90625 438.382812 C 675.472656 438.382812 704.316406 409.539062 704.316406 373.972656 C 704.316406 338.402344 675.480469 309.558594 639.90625 309.558594 Z M 639.90625 309.558594 "/>
</g>
</g>
</svg>
