<?xml version="1.0" encoding="UTF-8"?>
<svg xmlns="http://www.w3.org/2000/svg" xmlns:xlink="http://www.w3.org/1999/xlink" width="810pt" height="1439.999935pt" viewBox="0 0 810 1439.999935" version="1.2">
<defs>
<clipPath id="clip1">
  <path d="M 309.0625 166.679688 L 408.0625 166.679688 L 408.0625 265.679688 L 309.0625 265.679688 Z M 309.0625 166.679688 "/>
</clipPath>
<clipPath id="clip2">
  <path d="M 227.679688 255.1875 L 326.679688 255.1875 L 326.679688 354.1875 L 227.679688 354.1875 Z M 227.679688 255.1875 "/>
</clipPath>
<clipPath id="clip3">
  <path d="M 409.070312 240 L 508.070312 240 L 508.070312 370 L 409.070312 370 Z M 409.070312 240 "/>
</clipPath>
<clipPath id="clip4">
  <path d="M 515.363281 160.648438 L 614.363281 160.648438 L 614.363281 271.648438 L 515.363281 271.648438 Z M 515.363281 160.648438 "/>
</clipPath>
<clipPath id="clip5">
  <path d="M 128.773438 206 L 227.773438 206 L 227.773438 304 L 128.773438 304 Z M 128.773438 206 "/>
</clipPath>
<clipPath id="clip6">
  <path d="M 591 238.476562 L 680.730469 238.476562 L 680.730469 337.476562 L 591 337.476562 Z M 591 238.476562 "/>
</clipPath>
</defs>
<g id="surface1">
<rect x="0" y="0" width="810" height="1439.999935" style="fill:rgb(100%,100%,100%);fill-opacity:1;stroke:none;"/>
<rect x="0" y="0" width="810" height="1439.999935" style="fill:rgb(100%,100%,100%);fill-opacity:1;stroke:none;"/>
<g clip-path="url(#clip1)" clip-rule="nonzero">
<path style=" stroke:none;fill-rule:nonzero;fill:rgb(0%,0%,0%);fill-opacity:1;" d="M 315.359375 166.679688 C 311.914062 166.679688 309.0625 169.527344 309.0625 172.976562 L 309.0625 259.480469 C 309.0625 262.925781 311.914062 265.773438 315.359375 265.773438 L 401.863281 265.773438 C 405.308594 265.773438 408.15625 262.9375 408.15625 259.480469 L 408.15625 172.976562 C 408.15625 169.527344 405.320312 166.679688 401.863281 166.679688 Z M 315.359375 171.398438 L 401.863281 171.398438 C 402.738281 171.398438 403.4375 172.101562 403.4375 172.976562 L 403.4375 259.480469 C 403.4375 260.355469 402.738281 261.054688 401.863281 261.054688 L 315.359375 261.054688 C 314.484375 261.054688 313.78125 260.355469 313.78125 259.480469 L 313.78125 172.976562 C 313.78125 172.101562 314.484375 171.398438 315.359375 171.398438 Z M 353.890625 211.507812 L 353.890625 241.175781 C 353.890625 245.730469 352.167969 246.898438 349.171875 246.898438 C 346.039062 246.898438 343.863281 244.945312 342.425781 242.410156 L 335.015625 246.898438 C 337.164062 251.445312 342.425781 256.335938 349.726562 256.335938 C 357.800781 256.335938 363.328125 252.042969 363.328125 242.613281 L 363.328125 211.507812 Z M 383.273438 211.507812 C 375.238281 211.507812 370.085938 216.652344 370.085938 223.40625 C 370.085938 230.734375 374.40625 234.199219 380.90625 236.964844 L 383.15625 237.933594 C 387.253906 239.730469 389.28125 240.828125 389.28125 243.914062 C 389.28125 246.484375 387.328125 248.347656 383.597656 248.347656 C 379.15625 248.347656 377.054688 245.332031 375.125 242.179688 L 368.046875 246.898438 C 370.695312 252.125 375.441406 256.335938 383.800781 256.335938 C 392.351562 256.335938 398.71875 251.894531 398.71875 243.792969 C 398.71875 236.273438 394.40625 232.929688 386.75 229.648438 L 384.5 228.6875 C 380.636719 227.011719 378.960938 225.925781 378.960938 223.222656 C 378.960938 221.039062 380.636719 219.363281 383.273438 219.363281 C 385.863281 219.363281 387.523438 220.457031 389.0625 223.222656 L 396.074219 218.726562 C 393.117188 213.5 388.996094 211.507812 383.273438 211.507812 Z M 383.273438 211.507812 "/>
</g>
<g clip-path="url(#clip2)" clip-rule="nonzero">
<path style=" stroke:none;fill-rule:nonzero;fill:rgb(0%,0%,0%);fill-opacity:1;" d="M 318.515625 255.1875 L 235.9375 255.1875 C 231.378906 255.1875 227.679688 258.882812 227.679688 263.445312 L 227.679688 346.023438 C 227.679688 350.585938 231.378906 354.28125 235.9375 354.28125 L 318.515625 354.28125 C 323.074219 354.28125 326.773438 350.585938 326.773438 346.023438 L 326.773438 263.445312 C 326.773438 258.882812 323.074219 255.1875 318.515625 255.1875 Z M 301.226562 324.773438 L 301.226562 324.78125 C 300.402344 326.769531 299.09375 328.527344 297.417969 329.875 C 295.683594 331.28125 293.484375 332.4375 290.78125 333.261719 C 288.082031 334.101562 284.867188 334.519531 281.148438 334.519531 L 254.59375 334.519531 L 254.59375 276.714844 L 282.675781 276.714844 C 287.871094 276.714844 292.03125 277.882812 295.144531 280.265625 C 298.285156 282.660156 299.84375 286.230469 299.84375 291.042969 C 299.84375 293.953125 299.132812 296.453125 297.707031 298.515625 C 296.285156 300.570312 294.238281 302.175781 291.59375 303.289062 L 291.59375 303.480469 C 295.121094 304.222656 297.851562 305.894531 299.644531 308.496094 C 301.441406 311.097656 302.363281 314.382812 302.363281 318.351562 C 302.363281 320.574219 301.933594 322.6875 301.125 324.660156 Z M 301.226562 324.773438 "/>
</g>
<path style=" stroke:none;fill-rule:nonzero;fill:rgb(0%,0%,0%);fill-opacity:1;" d="M 289.765625 310.535156 C 288.074219 308.988281 285.695312 308.230469 282.621094 308.230469 L 264.777344 308.230469 L 264.777344 326.265625 L 282.671875 326.265625 C 285.726562 326.265625 288.121094 325.472656 289.816406 323.871094 C 291.507812 322.28125 292.375 320.015625 292.375 317.101562 C 292.347656 314.253906 291.507812 312.046875 289.816406 310.535156 Z M 289.765625 310.535156 "/>
<path style=" stroke:none;fill-rule:nonzero;fill:rgb(0%,0%,0%);fill-opacity:1;" d="M 287.273438 298.878906 L 287.289062 298.878906 C 288.921875 297.492188 289.726562 295.507812 289.726562 292.917969 C 289.726562 290.011719 289.003906 287.945312 287.535156 286.765625 C 286.082031 285.589844 283.984375 284.976562 281.226562 284.976562 L 264.710938 284.976562 L 264.710938 300.929688 L 281.226562 300.929688 C 283.632812 300.929688 285.6875 300.226562 287.273438 298.878906 Z M 287.273438 298.878906 "/>
<path style=" stroke:none;fill-rule:nonzero;fill:rgb(0%,0%,0%);fill-opacity:1;" d="M 440.539062 264.402344 L 440.539062 244.746094 L 426.925781 258.210938 L 413.324219 271.84375 L 433.097656 271.84375 C 433.585938 271.84375 434.070312 271.796875 434.550781 271.699219 C 435.027344 271.605469 435.496094 271.464844 435.945312 271.277344 C 436.398438 271.089844 436.824219 270.859375 437.230469 270.589844 C 437.636719 270.316406 438.011719 270.007812 438.359375 269.664062 C 438.703125 269.320312 439.011719 268.941406 439.285156 268.535156 C 439.554688 268.128906 439.785156 267.703125 439.972656 267.25 C 440.15625 266.800781 440.300781 266.335938 440.394531 265.855469 C 440.488281 265.375 440.539062 264.890625 440.539062 264.402344 Z M 440.539062 264.402344 "/>
<g clip-path="url(#clip3)" clip-rule="nonzero">
<path style=" stroke:none;fill-rule:nonzero;fill:rgb(0%,0%,0%);fill-opacity:1;" d="M 500.867188 240.585938 L 446.445312 240.585938 L 446.445312 264.402344 C 446.4375 265.277344 446.347656 266.144531 446.171875 267 C 445.996094 267.855469 445.738281 268.6875 445.402344 269.496094 C 445.0625 270.300781 444.652344 271.066406 444.164062 271.792969 C 443.675781 272.519531 443.125 273.191406 442.503906 273.8125 C 441.886719 274.429688 441.214844 274.980469 440.488281 275.46875 C 439.761719 275.957031 438.996094 276.367188 438.191406 276.707031 C 437.382812 277.042969 436.550781 277.300781 435.695312 277.476562 C 434.839844 277.652344 433.972656 277.742188 433.097656 277.75 L 409.277344 277.75 L 409.277344 361.757812 C 409.273438 362.25 409.320312 362.738281 409.410156 363.222656 C 409.503906 363.707031 409.644531 364.175781 409.828125 364.632812 C 410.015625 365.089844 410.242188 365.523438 410.511719 365.933594 C 410.785156 366.347656 411.089844 366.726562 411.4375 367.078125 C 411.78125 367.429688 412.160156 367.742188 412.566406 368.019531 C 412.972656 368.296875 413.402344 368.535156 413.855469 368.726562 C 414.308594 368.917969 414.777344 369.066406 415.261719 369.167969 C 415.742188 369.269531 416.230469 369.320312 416.722656 369.324219 L 500.867188 369.324219 C 501.359375 369.320312 501.847656 369.265625 502.332031 369.164062 C 502.816406 369.0625 503.285156 368.914062 503.738281 368.722656 C 504.191406 368.527344 504.625 368.292969 505.035156 368.015625 C 505.441406 367.738281 505.820312 367.425781 506.167969 367.074219 C 506.515625 366.726562 506.828125 366.34375 507.101562 365.933594 C 507.375 365.523438 507.605469 365.089844 507.796875 364.632812 C 507.984375 364.175781 508.128906 363.707031 508.226562 363.222656 C 508.324219 362.738281 508.375 362.25 508.378906 361.757812 L 508.378906 248.007812 C 508.375 247.515625 508.324219 247.03125 508.222656 246.550781 C 508.125 246.074219 507.980469 245.605469 507.789062 245.15625 C 507.597656 244.703125 507.363281 244.277344 507.089844 243.871094 C 506.816406 243.464844 506.503906 243.089844 506.15625 242.746094 C 505.808594 242.402344 505.429688 242.09375 505.019531 241.824219 C 504.609375 241.554688 504.179688 241.328125 503.726562 241.140625 C 503.273438 240.957031 502.804688 240.816406 502.324219 240.722656 C 501.84375 240.632812 501.355469 240.585938 500.867188 240.585938 Z M 440.617188 329.359375 C 441 329.359375 441.367188 329.433594 441.722656 329.578125 C 442.074219 329.726562 442.386719 329.933594 442.65625 330.207031 C 442.929688 330.476562 443.136719 330.789062 443.285156 331.144531 C 443.429688 331.496094 443.503906 331.867188 443.503906 332.25 C 443.503906 332.632812 443.429688 333 443.285156 333.355469 C 443.136719 333.707031 442.929688 334.019531 442.65625 334.289062 C 442.386719 334.5625 442.074219 334.769531 441.722656 334.917969 C 441.367188 335.0625 441 335.136719 440.617188 335.136719 L 425.019531 335.136719 C 424.640625 335.144531 424.269531 335.078125 423.914062 334.9375 C 423.558594 334.800781 423.242188 334.597656 422.964844 334.335938 C 422.6875 334.070312 422.46875 333.765625 422.3125 333.417969 C 422.15625 333.066406 422.074219 332.703125 422.0625 332.320312 L 422.0625 300.984375 C 422.058594 300.59375 422.132812 300.214844 422.28125 299.847656 C 422.429688 299.484375 422.640625 299.164062 422.921875 298.886719 C 423.199219 298.605469 423.519531 298.394531 423.882812 298.246094 C 424.25 298.09375 424.628906 298.023438 425.019531 298.027344 L 440.617188 298.027344 C 441.007812 298.027344 441.386719 298.101562 441.75 298.25 C 442.109375 298.402344 442.429688 298.617188 442.707031 298.894531 C 442.984375 299.171875 443.199219 299.492188 443.351562 299.851562 C 443.5 300.214844 443.574219 300.59375 443.574219 300.984375 C 443.574219 301.378906 443.5 301.757812 443.351562 302.117188 C 443.199219 302.480469 442.984375 302.800781 442.707031 303.078125 C 442.429688 303.355469 442.109375 303.570312 441.75 303.722656 C 441.386719 303.871094 441.007812 303.945312 440.617188 303.945312 L 427.855469 303.945312 L 427.855469 329.375 Z M 466.5625 313.765625 C 466.945312 313.757812 467.3125 313.824219 467.671875 313.964844 C 468.027344 314.101562 468.34375 314.304688 468.621094 314.566406 C 468.898438 314.832031 469.117188 315.136719 469.273438 315.484375 C 469.429688 315.832031 469.515625 316.199219 469.527344 316.582031 L 469.527344 332.320312 C 469.515625 332.703125 469.429688 333.066406 469.273438 333.417969 C 469.117188 333.765625 468.898438 334.070312 468.621094 334.335938 C 468.34375 334.597656 468.027344 334.796875 467.671875 334.9375 C 467.3125 335.078125 466.945312 335.144531 466.5625 335.136719 L 450.976562 335.136719 C 450.59375 335.136719 450.222656 335.0625 449.871094 334.917969 C 449.515625 334.769531 449.203125 334.5625 448.933594 334.289062 C 448.660156 334.019531 448.453125 333.707031 448.308594 333.355469 C 448.160156 333 448.085938 332.632812 448.085938 332.25 C 448.085938 331.867188 448.160156 331.496094 448.308594 331.144531 C 448.453125 330.789062 448.660156 330.476562 448.933594 330.207031 C 449.203125 329.933594 449.515625 329.726562 449.871094 329.578125 C 450.222656 329.433594 450.59375 329.359375 450.976562 329.359375 L 463.699219 329.359375 L 463.699219 319.542969 L 450.976562 319.542969 C 450.582031 319.542969 450.203125 319.472656 449.839844 319.324219 C 449.472656 319.175781 449.152344 318.960938 448.875 318.683594 C 448.597656 318.402344 448.382812 318.082031 448.234375 317.71875 C 448.085938 317.355469 448.011719 316.976562 448.015625 316.582031 L 448.015625 300.984375 C 448.011719 300.59375 448.082031 300.214844 448.230469 299.847656 C 448.378906 299.484375 448.59375 299.160156 448.871094 298.882812 C 449.152344 298.605469 449.472656 298.390625 449.835938 298.242188 C 450.203125 298.09375 450.582031 298.023438 450.976562 298.027344 L 466.5625 298.027344 C 466.957031 298.027344 467.332031 298.101562 467.695312 298.25 C 468.058594 298.402344 468.378906 298.617188 468.65625 298.894531 C 468.933594 299.171875 469.148438 299.492188 469.296875 299.851562 C 469.449219 300.214844 469.523438 300.59375 469.523438 300.984375 C 469.523438 301.378906 469.449219 301.757812 469.296875 302.117188 C 469.148438 302.480469 468.933594 302.800781 468.65625 303.078125 C 468.378906 303.355469 468.058594 303.570312 467.695312 303.722656 C 467.332031 303.871094 466.957031 303.945312 466.5625 303.945312 L 453.933594 303.945312 L 453.933594 313.765625 Z M 492.640625 313.765625 C 493.015625 313.765625 493.378906 313.839844 493.726562 313.984375 C 494.074219 314.125 494.382812 314.328125 494.652344 314.589844 C 494.925781 314.851562 495.136719 315.15625 495.289062 315.5 C 495.441406 315.84375 495.523438 316.207031 495.535156 316.582031 L 495.535156 332.320312 C 495.523438 332.695312 495.441406 333.054688 495.289062 333.402344 C 495.136719 333.746094 494.925781 334.046875 494.652344 334.3125 C 494.382812 334.574219 494.074219 334.777344 493.726562 334.917969 C 493.378906 335.0625 493.015625 335.132812 492.640625 335.136719 L 476.972656 335.136719 C 476.597656 335.136719 476.238281 335.0625 475.890625 334.921875 C 475.542969 334.777344 475.234375 334.574219 474.964844 334.3125 C 474.695312 334.046875 474.488281 333.746094 474.335938 333.398438 C 474.1875 333.054688 474.109375 332.695312 474.097656 332.320312 C 474.09375 331.933594 474.164062 331.558594 474.304688 331.199219 C 474.449219 330.839844 474.65625 330.523438 474.925781 330.246094 C 475.195312 329.96875 475.507812 329.753906 475.859375 329.597656 C 476.214844 329.445312 476.585938 329.367188 476.972656 329.359375 L 489.699219 329.359375 L 489.699219 319.542969 L 476.972656 319.542969 C 476.585938 319.535156 476.214844 319.457031 475.859375 319.300781 C 475.507812 319.148438 475.195312 318.933594 474.925781 318.65625 C 474.65625 318.378906 474.449219 318.058594 474.304688 317.699219 C 474.164062 317.339844 474.09375 316.96875 474.097656 316.582031 L 474.097656 300.984375 C 474.09375 300.597656 474.160156 300.226562 474.304688 299.867188 C 474.445312 299.507812 474.652344 299.1875 474.921875 298.910156 C 475.191406 298.632812 475.503906 298.417969 475.859375 298.261719 C 476.214844 298.109375 476.585938 298.03125 476.972656 298.027344 L 492.667969 298.027344 C 493.058594 298.027344 493.4375 298.101562 493.796875 298.25 C 494.160156 298.402344 494.480469 298.617188 494.757812 298.894531 C 495.035156 299.171875 495.25 299.492188 495.402344 299.851562 C 495.550781 300.214844 495.625 300.59375 495.625 300.984375 C 495.625 301.378906 495.550781 301.757812 495.402344 302.117188 C 495.25 302.480469 495.035156 302.800781 494.757812 303.078125 C 494.480469 303.355469 494.160156 303.570312 493.796875 303.722656 C 493.4375 303.871094 493.058594 303.945312 492.667969 303.945312 L 479.867188 303.945312 L 479.867188 313.765625 Z M 492.640625 313.765625 "/>
</g>
<g clip-path="url(#clip4)" clip-rule="nonzero">
<path style=" stroke:none;fill-rule:nonzero;fill:rgb(0%,0%,0%);fill-opacity:1;" d="M 613.910156 161.5625 C 613.460938 161.0625 612.808594 160.78125 612.132812 160.78125 L 517.933594 160.78125 C 517.253906 160.78125 516.605469 161.0625 516.152344 161.5625 C 515.691406 162.058594 515.464844 162.726562 515.53125 163.40625 L 524.015625 258.34375 C 524.101562 259.339844 524.796875 260.167969 525.757812 260.449219 L 564.363281 271.453125 C 564.570312 271.519531 564.796875 271.546875 565.023438 271.546875 C 565.25 271.546875 565.464844 271.519531 565.683594 271.453125 L 604.316406 260.449219 C 605.277344 260.167969 605.964844 259.339844 606.058594 258.34375 L 614.535156 163.40625 C 614.597656 162.726562 614.375 162.058594 613.910156 161.5625 Z M 593.597656 194.296875 L 548.238281 194.296875 L 549.324219 206.550781 L 592.503906 206.550781 L 589.265625 242.773438 L 565.011719 250.09375 L 564.777344 250.019531 L 540.808594 242.765625 L 539.5 228.007812 L 551.242188 228.007812 L 551.753906 233.734375 L 565.152344 236.539062 L 578.3125 233.734375 L 579.714844 218.234375 L 538.625 218.234375 L 535.429688 182.585938 L 594.640625 182.585938 Z M 593.597656 194.296875 "/>
</g>
<g clip-path="url(#clip5)" clip-rule="nonzero">
<path style=" stroke:none;fill-rule:evenodd;fill:rgb(0%,0%,0%);fill-opacity:1;" d="M 178.316406 206.765625 C 150.957031 206.765625 128.773438 228.953125 128.773438 256.316406 C 128.773438 278.203125 142.96875 296.777344 162.660156 303.328125 C 165.136719 303.785156 166.039062 302.253906 166.039062 300.941406 C 166.039062 299.765625 166 296.648438 165.972656 292.515625 C 152.191406 295.507812 149.285156 285.871094 149.285156 285.871094 C 147.03125 280.148438 143.785156 278.625 143.785156 278.625 C 139.285156 275.550781 144.125 275.617188 144.125 275.617188 C 149.09375 275.96875 151.710938 280.722656 151.710938 280.722656 C 156.128906 288.296875 163.3125 286.109375 166.132812 284.839844 C 166.582031 281.640625 167.859375 279.457031 169.277344 278.21875 C 158.273438 276.964844 146.707031 272.71875 146.707031 253.730469 C 146.707031 248.320312 148.640625 243.898438 151.808594 240.433594 C 151.300781 239.179688 149.597656 234.140625 152.296875 227.320312 C 152.296875 227.320312 156.457031 225.988281 165.921875 232.398438 C 169.871094 231.300781 174.113281 230.75 178.324219 230.730469 C 182.53125 230.75 186.769531 231.300781 190.726562 232.398438 C 200.1875 225.988281 204.339844 227.320312 204.339844 227.320312 C 207.042969 234.140625 205.34375 239.179688 204.832031 240.433594 C 208.007812 243.898438 209.921875 248.320312 209.921875 253.730469 C 209.921875 272.761719 198.335938 276.949219 187.300781 278.175781 C 189.078125 279.703125 190.664062 282.730469 190.664062 287.351562 C 190.664062 293.972656 190.601562 299.316406 190.601562 300.941406 C 190.601562 302.269531 191.496094 303.808594 194.007812 303.324219 C 213.683594 296.757812 227.867188 278.199219 227.867188 256.316406 C 227.867188 228.953125 205.683594 206.765625 178.316406 206.765625 Z M 178.316406 206.765625 "/>
</g>
<g clip-path="url(#clip6)" clip-rule="nonzero">
<path style=" stroke:none;fill-rule:evenodd;fill:rgb(0%,0%,0%);fill-opacity:1;" d="M 591.15625 267.507812 C 591.101562 269.171875 591.390625 270.917969 591.953125 272.667969 C 593.078125 276.164062 595.273438 279.832031 598.308594 283.59375 C 599.5 285.066406 600.859375 286.554688 602.304688 288.046875 C 600.898438 289.507812 599.574219 290.964844 598.410156 292.40625 C 595.375 296.164062 593.179688 299.820312 592.054688 303.308594 C 590.933594 306.800781 590.898438 310.273438 592.53125 313.125 C 594.167969 315.976562 597.167969 317.683594 600.730469 318.449219 C 604.292969 319.214844 608.535156 319.128906 613.28125 318.359375 C 614.933594 318.09375 616.664062 317.714844 618.425781 317.277344 C 618.917969 318.910156 619.433594 320.492188 620 321.960938 C 621.71875 326.386719 623.773438 330.054688 626.21875 332.722656 C 628.660156 335.390625 631.628906 337.113281 634.886719 337.113281 C 638.144531 337.113281 641.109375 335.390625 643.550781 332.722656 C 645.996094 330.054688 648.054688 326.386719 649.773438 321.960938 C 650.382812 320.390625 650.929688 318.691406 651.449219 316.9375 C 653.789062 317.566406 656.058594 318.078125 658.210938 318.425781 C 662.964844 319.195312 667.207031 319.277344 670.777344 318.511719 C 674.347656 317.742188 677.363281 316.039062 679.007812 313.171875 C 680.648438 310.304688 680.609375 306.816406 679.484375 303.320312 C 678.355469 299.820312 676.167969 296.160156 673.128906 292.398438 C 671.949219 290.9375 670.605469 289.457031 669.175781 287.980469 C 670.613281 286.492188 671.964844 285.011719 673.152344 283.542969 C 676.1875 279.785156 678.375 276.125 679.5 272.632812 C 680.621094 269.144531 680.65625 265.671875 679.023438 262.816406 C 677.386719 259.964844 674.386719 258.265625 670.824219 257.5 C 667.265625 256.734375 663.027344 256.820312 658.277344 257.585938 C 656.117188 257.9375 653.839844 258.449219 651.492188 259.082031 C 650.960938 257.269531 650.398438 255.515625 649.773438 253.902344 C 648.054688 249.472656 645.996094 245.808594 643.550781 243.136719 C 641.109375 240.46875 638.144531 238.746094 634.886719 238.746094 C 631.628906 238.746094 628.660156 240.46875 626.21875 243.136719 C 623.773438 245.808594 621.71875 249.472656 620 253.902344 C 619.421875 255.390625 618.902344 256.996094 618.40625 258.652344 C 616.632812 258.214844 614.886719 257.828125 613.230469 257.558594 C 608.476562 256.789062 604.230469 256.707031 600.660156 257.472656 C 597.089844 258.242188 594.074219 259.953125 592.433594 262.816406 C 591.613281 264.25 591.210938 265.839844 591.15625 267.507812 Z M 595.476562 267.703125 C 595.503906 266.65625 595.75 265.765625 596.1875 265 C 597.0625 263.476562 598.765625 262.347656 601.566406 261.746094 C 604.367188 261.144531 608.15625 261.164062 612.546875 261.875 C 614.046875 262.117188 615.640625 262.472656 617.273438 262.871094 C 616.230469 267.246094 615.453125 272.035156 615 277.140625 C 611.472656 279.707031 608.261719 282.339844 605.414062 284.996094 C 604.050781 283.589844 602.777344 282.195312 601.679688 280.832031 C 598.871094 277.359375 596.964844 274.066406 596.078125 271.324219 C 595.636719 269.949219 595.445312 268.75 595.476562 267.703125 Z M 595.488281 308.265625 C 595.457031 307.214844 595.648438 306.011719 596.09375 304.632812 C 596.980469 301.878906 598.886719 298.585938 601.695312 295.105469 C 602.773438 293.773438 604.023438 292.40625 605.351562 291.03125 C 608.222656 293.707031 611.460938 296.363281 615.019531 298.941406 C 615.484375 304.027344 616.261719 308.800781 617.3125 313.148438 C 615.6875 313.546875 614.101562 313.902344 612.605469 314.144531 C 608.214844 314.855469 604.425781 314.871094 601.617188 314.269531 C 598.808594 313.664062 597.089844 312.527344 596.207031 310.988281 C 595.765625 310.21875 595.515625 309.316406 595.488281 308.265625 Z M 608.46875 287.980469 C 610.347656 286.238281 612.40625 284.496094 614.621094 282.769531 C 614.550781 284.46875 614.507812 286.183594 614.507812 287.929688 C 614.507812 289.710938 614.550781 291.460938 614.625 293.191406 C 612.410156 291.460938 610.351562 289.722656 608.46875 287.980469 Z M 618.792969 287.929688 C 618.792969 285.023438 618.914062 282.191406 619.113281 279.433594 C 621.816406 277.539062 624.6875 275.683594 627.722656 273.917969 C 630.390625 272.367188 633.050781 270.964844 635.683594 269.6875 C 638.347656 270.976562 641.046875 272.40625 643.75 273.976562 C 646.132812 275.363281 648.394531 276.808594 650.574219 278.277344 C 650.832031 281.390625 650.976562 284.617188 650.976562 287.929688 C 650.976562 291.324219 650.824219 294.621094 650.550781 297.804688 C 648.402344 299.25 646.175781 300.671875 643.835938 302.03125 C 641.136719 303.601562 638.441406 305.023438 635.78125 306.3125 C 633.105469 305.015625 630.398438 303.589844 627.683594 302.011719 C 624.664062 300.253906 621.8125 298.40625 619.121094 296.523438 C 618.917969 293.738281 618.792969 290.871094 618.792969 287.929688 Z M 619.644531 273.933594 C 620.082031 270.40625 620.6875 267.101562 621.414062 264.019531 C 624.386719 264.933594 627.492188 266.058594 630.695312 267.421875 C 629.003906 268.308594 627.304688 269.226562 625.597656 270.214844 C 623.535156 271.417969 621.566406 272.667969 619.644531 273.933594 Z M 619.675781 302.15625 C 621.5625 303.394531 623.496094 304.613281 625.515625 305.789062 C 627.242188 306.792969 628.964844 307.730469 630.679688 308.625 C 627.496094 309.976562 624.40625 311.09375 621.449219 312.003906 C 620.722656 308.945312 620.117188 305.65625 619.675781 302.15625 Z M 622.542969 259.792969 C 622.996094 258.277344 623.472656 256.8125 623.992188 255.46875 C 625.574219 251.386719 627.449219 248.15625 629.367188 246.066406 C 631.285156 243.972656 633.113281 243.0625 634.886719 243.0625 C 636.660156 243.0625 638.488281 243.972656 640.40625 246.066406 C 642.324219 248.15625 644.199219 251.386719 645.78125 255.46875 C 646.359375 256.960938 646.886719 258.601562 647.382812 260.304688 C 643.648438 261.519531 639.757812 263.070312 635.78125 264.917969 C 631.21875 262.796875 626.769531 261.082031 622.542969 259.792969 Z M 622.5625 316.140625 C 626.75 314.867188 631.152344 313.171875 635.671875 311.078125 C 639.667969 312.9375 643.582031 314.496094 647.335938 315.71875 C 646.851562 317.363281 646.34375 318.945312 645.78125 320.390625 C 644.199219 324.472656 642.324219 327.703125 640.40625 329.796875 C 638.488281 331.890625 636.660156 332.796875 634.886719 332.796875 C 633.113281 332.796875 631.285156 331.890625 629.367188 329.796875 C 627.449219 327.703125 625.574219 324.472656 623.992188 320.390625 C 623.480469 319.066406 623.011719 317.628906 622.5625 316.140625 Z M 625.140625 287.929688 C 625.140625 293.808594 629.914062 298.617188 635.75 298.617188 C 641.582031 298.617188 646.359375 293.808594 646.359375 287.929688 C 646.359375 282.054688 641.582031 277.242188 635.75 277.242188 C 629.914062 277.242188 625.140625 282.054688 625.140625 287.929688 Z M 640.765625 308.574219 C 642.492188 307.675781 644.222656 306.738281 645.957031 305.730469 C 647.3125 304.941406 648.632812 304.136719 649.929688 303.320312 C 649.535156 306.1875 649.035156 308.917969 648.441406 311.480469 C 645.964844 310.664062 643.394531 309.691406 640.765625 308.574219 Z M 640.765625 267.367188 C 643.398438 266.25 645.976562 265.273438 648.460938 264.453125 C 649.050781 267.027344 649.550781 269.761719 649.941406 272.640625 C 648.628906 271.8125 647.292969 270.996094 645.917969 270.195312 C 644.199219 269.195312 642.480469 268.261719 640.765625 267.367188 Z M 652.5625 312.710938 C 653.472656 308.84375 654.171875 304.652344 654.625 300.203125 C 658.886719 297.234375 662.714844 294.144531 666.0625 291.03125 C 667.410156 292.421875 668.675781 293.804688 669.765625 295.152344 C 672.570312 298.628906 674.476562 301.921875 675.359375 304.667969 C 676.242188 307.414062 676.125 309.460938 675.25 310.988281 C 674.378906 312.515625 672.675781 313.636719 669.871094 314.238281 C 667.070312 314.84375 663.289062 314.824219 658.898438 314.113281 C 656.90625 313.792969 654.773438 313.3125 652.5625 312.710938 Z M 652.578125 263.21875 C 654.804688 262.617188 656.945312 262.132812 658.949219 261.808594 C 663.34375 261.097656 667.128906 261.078125 669.9375 261.683594 C 672.75 262.285156 674.46875 263.414062 675.351562 264.957031 C 676.234375 266.496094 676.347656 268.566406 675.464844 271.316406 C 674.578125 274.070312 672.667969 277.367188 669.859375 280.84375 C 668.761719 282.203125 667.488281 283.59375 666.128906 284.996094 C 662.769531 281.863281 658.921875 278.75 654.632812 275.761719 C 654.183594 271.304688 653.488281 267.097656 652.578125 263.21875 Z M 655.0625 294.625 C 655.179688 292.433594 655.261719 290.207031 655.261719 287.929688 C 655.261719 285.726562 655.183594 283.574219 655.074219 281.449219 C 657.984375 283.625 660.628906 285.835938 663.007812 288.042969 C 660.621094 290.246094 657.972656 292.457031 655.0625 294.625 Z M 655.0625 294.625 "/>
</g>
</g>
</svg>
